<?xml version="1.0" standalone="no"?>
<!DOCTYPE svg PUBLIC "-//W3C//DTD SVG 20010904//EN"
 "http://www.w3.org/TR/2001/REC-SVG-20010904/DTD/svg10.dtd">
<svg version="1.0" xmlns="http://www.w3.org/2000/svg"
 width="696.000000pt" height="696.000000pt" viewBox="0 0 696.000000 696.000000"
 preserveAspectRatio="xMidYMid meet">
<metadata>
Created by potrace 1.14, written by Peter Selinger 2001-2017
</metadata>
<g transform="translate(0.000000,696.000000) scale(0.100000,-0.100000)"
fill="#000000" stroke="none">
<path d="M4178 6039 c-193 -15 -434 -77 -605 -155 l-73 -33 -76 35 c-109 49
-262 98 -394 125 -102 21 -141 24 -350 24 -216 -1 -245 -3 -361 -28 -69 -14
-168 -40 -219 -57 -112 -37 -275 -112 -307 -142 l-23 -21 0 -1169 0 -1169 25
-24 c33 -34 81 -32 155 5 158 80 358 139 543 160 108 13 356 8 442 -8 l40 -7
0 -275 0 -274 -355 -77 c-231 -50 -380 -87 -427 -106 -103 -44 -199 -111 -284
-200 -85 -89 -135 -165 -178 -274 -58 -145 -61 -187 -61 -881 l0 -630 29 -29
c40 -39 97 -41 132 -3 l24 26 5 671 5 672 27 73 c47 130 134 250 230 319 l45
32 169 -194 c93 -107 170 -198 171 -202 1 -4 -44 -39 -101 -76 -108 -71 -134
-103 -122 -150 8 -35 665 -1159 688 -1179 23 -20 79 -24 110 -7 11 6 26 26 34
45 12 29 12 39 0 67 -7 17 -149 264 -314 546 l-301 515 109 73 c135 90 156
119 134 178 -4 10 -94 117 -201 238 -157 180 -190 223 -176 228 42 15 605 131
610 125 4 -3 7 -142 8 -308 2 -235 6 -318 18 -368 9 -36 106 -346 216 -690
152 -477 205 -629 221 -642 28 -23 91 -23 119 0 17 13 71 171 226 657 113 352
210 667 216 700 7 36 13 179 13 354 1 200 5 296 12 298 11 4 613 -123 620
-130 2 -2 -83 -103 -190 -224 -106 -122 -196 -229 -200 -238 -22 -59 -1 -88
134 -178 l109 -73 -301 -515 c-165 -282 -307 -529 -314 -547 -12 -27 -12 -37
0 -66 8 -19 23 -39 34 -45 32 -17 90 -13 110 7 21 21 669 1129 685 1171 19 52
-4 82 -119 158 -57 37 -104 71 -104 74 0 5 282 333 329 381 15 17 19 15 74
-27 112 -88 199 -229 231 -372 14 -62 16 -162 16 -707 l0 -634 26 -31 c21 -26
33 -31 69 -31 36 0 48 5 70 31 l26 32 -4 666 c-4 731 -2 710 -67 863 -89 209
-284 393 -493 464 -71 24 -341 86 -610 140 l-137 28 2 275 3 276 105 13 c133
16 397 10 500 -13 106 -23 289 -85 394 -134 104 -48 146 -52 181 -16 l25 24 0
756 0 756 -25 24 c-34 35 -96 35 -130 0 l-25 -24 0 -662 c0 -626 -1 -661 -17
-654 -348 145 -729 181 -1093 103 -80 -17 -272 -76 -332 -103 -17 -7 -18 45
-18 1018 l0 1024 60 27 c422 190 916 189 1343 -1 l57 -26 0 -169 c0 -166 0
-169 25 -193 18 -19 35 -25 65 -25 30 0 47 6 65 25 l25 24 0 219 c0 253 8 234
-115 295 -274 136 -619 201 -937 176z m-1347 -190 c182 -18 360 -64 512 -132
l67 -30 0 -1024 c0 -972 -1 -1025 -17 -1018 -174 72 -378 121 -574 138 -278
23 -586 -27 -851 -138 -17 -7 -18 46 -18 1018 l0 1024 68 30 c249 112 545 160
813 132z m441 -2358 c42 -17 104 -44 137 -60 77 -39 106 -39 189 3 65 32 203
86 223 86 6 0 8 -102 7 -267 l-3 -268 -63 -42 c-173 -116 -392 -109 -554 19
l-38 30 0 264 c0 207 3 264 13 264 7 0 47 -13 89 -29z m96 -807 c101 -24 224
-15 337 25 50 17 98 34 108 37 16 6 17 -9 17 -224 0 -239 -6 -290 -51 -447
-38 -133 -274 -855 -279 -855 -7 0 -225 665 -269 820 -56 196 -61 233 -61 485
l0 234 65 -30 c36 -16 96 -37 133 -45z"/>
</g>
</svg>
